<?xml version="1.0" standalone="no"?><!DOCTYPE svg PUBLIC "-//W3C//DTD SVG 1.1//EN" "http://www.w3.org/Graphics/SVG/1.1/DTD/svg11.dtd"><svg t="1717432412094" class="icon" viewBox="0 0 1024 1024" version="1.1" xmlns="http://www.w3.org/2000/svg" p-id="1509" data-spm-anchor-id="a313x.search_index.0.i4.7d063a81iPnyZT" xmlns:xlink="http://www.w3.org/1999/xlink" width="200" height="200"><path d="M701.8 959.6H219c-58.2 0-105.6-47.4-105.6-105.6V170c0-58.2 47.4-105.6 105.6-105.6h208.7c13.9 0 25.1 11.3 25.1 25.1s-11.3 25.1-25.1 25.1H219c-30.5 0-55.3 24.8-55.3 55.3V854c0 30.5 24.8 55.3 55.3 55.3h482.8c30.5 0 55.3-24.8 55.3-55.3V566.7c0-13.9 11.3-25.1 25.1-25.1 13.9 0 25.1 11.3 25.1 25.1V854c0.1 58.2-47.3 105.6-105.5 105.6z" p-id="1510" data-spm-anchor-id="a313x.search_index.0.i2.7d063a81iPnyZT" class="selected" fill="#dbdbdb"></path><path d="M427.7 373.6H229c-13.9 0-25.1-11.3-25.1-25.1 0-13.9 11.3-25.1 25.1-25.1h198.8c13.9 0 25.1 11.3 25.1 25.1 0 13.9-11.3 25.1-25.2 25.1z m115.7 200.7H229c-13.9 0-25.1-11.3-25.1-25.1S215.1 524 229 524h314.4c13.9 0 25.1 11.3 25.1 25.1s-11.2 25.2-25.1 25.2zM663.5 775H229c-13.9 0-25.1-11.3-25.1-25.1s11.3-25.1 25.1-25.1h434.5c13.9 0 25.1 11.3 25.1 25.1S677.4 775 663.5 775z m27.9-210.9h-9.9c-8.3 0-13.8-2.4-18.6-6.2-39.3-19.1-76.5-46.8-107.7-80.4l-0.8-0.9c-39.6-47-67.7-100.9-83.7-160.2l-0.3-0.9-0.2-1C463 276 456.3 234.6 456.3 193v-33.7c0-20.1 15.3-36.4 34.1-36.4H504c8.1 0 12.6 0 18.6-1.5l1.4-0.4 1.4-0.2c48.6-6.3 94.2-23.2 135.6-50.1l1.2-0.8 1.3-0.6c8.6-4.3 14.8-4.9 20.2-4.9h12.7l7.8 7.8c33.5 21.9 72.4 37.1 118.6 46.5 14.2 2 30.9 4.1 49.7 4.1 13.2 0 24.8 6.9 31.1 18.4 4 7.4 5.1 15.3 5.3 21 2.3 23.7 2.3 49.7-0.1 73.3-3.5 44.5-13.1 86.6-28.3 125.3-15 38.1-36.1 73.8-62.6 106.4l-0.1 0.1c-35.2 42.7-74.9 73.6-121.4 94.6l-5 2.2z m-98.9-120.4c26.7 28.6 58.2 52.2 91.5 68.5 36.2-17.7 66.6-42.3 95-76.8 47.4-58.2 73.5-125 79.8-204v-0.5c1.9-18.7 2.1-39 0.6-58-16-0.7-30.7-2.5-44.3-4.5l-1.4-0.2c-50.1-10-94.5-27.1-132.2-50.8-45.5 28.2-95.2 46-148.1 53.1-10.2 2.4-18.3 2.6-26.7 2.6v19.8c0 37.1 6.2 75.4 12.9 111.2 14.2 52.4 38 98.1 72.9 139.6z m205.9 7.7z" p-id="1511" data-spm-anchor-id="a313x.search_index.0.i0.7d063a81iPnyZT" class="" fill="#1296db"></path><path d="M832.4 198.6c-14 0-25.9-2-39.9-4-33.9-6-65.8-19.9-95.7-39.9v319c39.9-19.9 71.8-51.8 93.7-91.7 29.9-51.8 43.9-111.7 39.9-179.4 2-2 2-2 2-4z m0 0" p-id="1512" data-spm-anchor-id="a313x.search_index.0.i1.7d063a81iPnyZT" class="" fill="#1296db"></path></svg>